<svg width="55" height="17" viewBox="0 0 55 17" fill="none" xmlns="http://www.w3.org/2000/svg">
<path d="M0.908204 9.16992C0.406617 8.66834 0.406616 7.8551 0.908203 7.35352L7.35351 0.908202C7.8551 0.406615 8.66833 0.406615 9.16992 0.908202C9.67151 1.40979 9.67151 2.22302 9.16992 2.72461L2.72461 9.16992C2.22302 9.67151 1.40979 9.67151 0.908204 9.16992Z" fill="white"/>
<path d="M0.908203 7.44336C1.40979 6.94177 2.22302 6.94177 2.72461 7.44336L9.16992 13.8887C9.67151 14.3903 9.67151 15.2035 9.16992 15.7051C8.66833 16.2067 7.8551 16.2067 7.35351 15.7051L0.908202 9.25977C0.406615 8.75818 0.406616 7.94495 0.908203 7.44336Z" fill="white"/>
<path d="M24.3431 9.98516H21.3031L20.7431 11.5352H19.7831L22.3031 4.60516H23.3531L25.8631 11.5352H24.9031L24.3431 9.98516ZM24.0831 9.24516L22.8231 5.72516L21.5631 9.24516H24.0831ZM28.0714 6.80516V10.0352C28.0714 10.3018 28.1281 10.4918 28.2414 10.6052C28.3547 10.7118 28.5514 10.7652 28.8314 10.7652H29.5014V11.5352H28.6814C28.1747 11.5352 27.7947 11.4185 27.5414 11.1852C27.2881 10.9518 27.1614 10.5685 27.1614 10.0352V6.80516H26.4514V6.05516H27.1614V4.67516H28.0714V6.05516H29.5014V6.80516H28.0714ZM31.514 6.94516C31.674 6.63182 31.9007 6.38849 32.194 6.21516C32.494 6.04182 32.8573 5.95516 33.284 5.95516V6.89516H33.044C32.024 6.89516 31.514 7.44849 31.514 8.55516V11.5352H30.604V6.05516H31.514V6.94516ZM33.9945 8.77516C33.9945 8.21516 34.1078 7.72516 34.3345 7.30516C34.5611 6.87849 34.8711 6.54849 35.2645 6.31516C35.6645 6.08182 36.1078 5.96516 36.5945 5.96516C37.0745 5.96516 37.4911 6.06849 37.8445 6.27516C38.1978 6.48182 38.4611 6.74182 38.6345 7.05516V6.05516H39.5545V11.5352H38.6345V10.5152C38.4545 10.8352 38.1845 11.1018 37.8245 11.3152C37.4711 11.5218 37.0578 11.6252 36.5845 11.6252C36.0978 11.6252 35.6578 11.5052 35.2645 11.2652C34.8711 11.0252 34.5611 10.6885 34.3345 10.2552C34.1078 9.82182 33.9945 9.32849 33.9945 8.77516ZM38.6345 8.78516C38.6345 8.37182 38.5511 8.01182 38.3845 7.70516C38.2178 7.39849 37.9911 7.16516 37.7045 7.00516C37.4245 6.83849 37.1145 6.75516 36.7745 6.75516C36.4345 6.75516 36.1245 6.83516 35.8445 6.99516C35.5645 7.15516 35.3411 7.38849 35.1745 7.69516C35.0078 8.00182 34.9245 8.36182 34.9245 8.77516C34.9245 9.19516 35.0078 9.56182 35.1745 9.87516C35.3411 10.1818 35.5645 10.4185 35.8445 10.5852C36.1245 10.7452 36.4345 10.8252 36.7745 10.8252C37.1145 10.8252 37.4245 10.7452 37.7045 10.5852C37.9911 10.4185 38.2178 10.1818 38.3845 9.87516C38.5511 9.56182 38.6345 9.19849 38.6345 8.78516ZM37.9245 4.50516L35.7945 5.64516V4.96516L37.9245 3.71516V4.50516ZM43.0323 11.6252C42.6123 11.6252 42.2356 11.5552 41.9023 11.4152C41.5689 11.2685 41.3056 11.0685 41.1123 10.8152C40.9189 10.5552 40.8123 10.2585 40.7923 9.92516H41.7323C41.7589 10.1985 41.8856 10.4218 42.1123 10.5952C42.3456 10.7685 42.6489 10.8552 43.0223 10.8552C43.3689 10.8552 43.6423 10.7785 43.8423 10.6252C44.0423 10.4718 44.1423 10.2785 44.1423 10.0452C44.1423 9.80516 44.0356 9.62849 43.8223 9.51516C43.6089 9.39516 43.2789 9.27849 42.8323 9.16516C42.4256 9.05849 42.0923 8.95182 41.8323 8.84516C41.5789 8.73182 41.3589 8.56849 41.1723 8.35516C40.9923 8.13516 40.9023 7.84849 40.9023 7.49516C40.9023 7.21516 40.9856 6.95849 41.1523 6.72516C41.3189 6.49182 41.5556 6.30849 41.8623 6.17516C42.1689 6.03516 42.5189 5.96516 42.9123 5.96516C43.5189 5.96516 44.0089 6.11849 44.3823 6.42516C44.7556 6.73182 44.9556 7.15182 44.9823 7.68516H44.0723C44.0523 7.39849 43.9356 7.16849 43.7223 6.99516C43.5156 6.82182 43.2356 6.73516 42.8823 6.73516C42.5556 6.73516 42.2956 6.80516 42.1023 6.94516C41.9089 7.08516 41.8123 7.26849 41.8123 7.49516C41.8123 7.67516 41.8689 7.82516 41.9823 7.94516C42.1023 8.05849 42.2489 8.15182 42.4223 8.22516C42.6023 8.29182 42.8489 8.36849 43.1623 8.45516C43.5556 8.56182 43.8756 8.66849 44.1223 8.77516C44.3689 8.87516 44.5789 9.02849 44.7523 9.23516C44.9323 9.44182 45.0256 9.71182 45.0323 10.0452C45.0323 10.3452 44.9489 10.6152 44.7823 10.8552C44.6156 11.0952 44.3789 11.2852 44.0723 11.4252C43.7723 11.5585 43.4256 11.6252 43.0323 11.6252Z" fill="white"/>
</svg>
