<svg width="20" height="13" viewBox="0 0 20 13" fill="none" xmlns="http://www.w3.org/2000/svg">
<path d="M0 1.5C0 0.671573 0.671573 0 1.5 0L18.5 0C19.3284 0 20 0.671573 20 1.5C20 2.32843 19.3284 3 18.5 3L1.5 3C0.671573 3 0 2.32843 0 1.5Z" fill="white"/>
<path d="M0 6.5C0 5.67157 0.671573 5 1.5 5L18.5 5C19.3284 5 20 5.67157 20 6.5C20 7.32843 19.3284 8 18.5 8L1.5 8C0.671573 8 0 7.32843 0 6.5Z" fill="white"/>
<path d="M0 11.5C0 10.6716 0.671573 10 1.5 10H18.5C19.3284 10 20 10.6716 20 11.5C20 12.3284 19.3284 13 18.5 13H1.5C0.671573 13 0 12.3284 0 11.5Z" fill="white"/>
</svg>
