<svg width="11" height="17" viewBox="0 0 11 17" fill="none" xmlns="http://www.w3.org/2000/svg">
<path d="M0.908204 9.16992C0.406617 8.66834 0.406616 7.8551 0.908203 7.35352L7.35351 0.908202C7.8551 0.406615 8.66833 0.406615 9.16992 0.908202C9.67151 1.40979 9.67151 2.22302 9.16992 2.72461L2.72461 9.16992C2.22302 9.67151 1.40979 9.67151 0.908204 9.16992Z" fill="white"/>
<path d="M0.908203 7.44336C1.40979 6.94177 2.22302 6.94177 2.72461 7.44336L9.16992 13.8887C9.67151 14.3903 9.67151 15.2035 9.16992 15.7051C8.66833 16.2067 7.8551 16.2067 7.35351 15.7051L0.908202 9.25977C0.406615 8.75818 0.406616 7.94495 0.908203 7.44336Z" fill="white"/>
</svg>
