<?xml version="1.0" encoding="utf-8" ?>
<svg xmlns="http://www.w3.org/2000/svg" xmlns:xlink="http://www.w3.org/1999/xlink" width="1024" height="1024">
	<path fill="white" transform="scale(2 2)" d="M157.874 229.446C153.342 226.4 148.893 223.003 144.505 219.738C134.369 212.198 137.493 214.929 125.925 211.945C94.7763 203.909 73.0104 175.307 71.9456 143.308C70.6648 104.818 102.222 70.8615 140.875 69.7182C209.415 65.1635 246.594 156.195 189.7 199.191C186.458 201.641 182.941 203.647 179.447 205.708L179.479 222.77C179.484 228.456 180.099 241.424 169.666 237.617C166.468 236.449 160.782 231.572 157.874 229.446ZM140.875 86.103C110.777 88.4917 86.0448 114.888 88.3919 145.558C90.3172 170.715 109.297 192.238 133.983 197.313C147.926 200.179 142.172 198.378 154.381 206.891C157.267 208.997 160.167 211.087 163.027 213.229L163.027 194.898C173.133 192.951 185.538 182.079 191.164 173.717C208.715 147.627 201.835 112.66 175.622 95.2165C166.464 89.1219 151.922 84.7085 140.875 86.103Z"/>
	<path fill="white" transform="scale(2 2)" d="M331.335 204.501C321.047 204.158 302.05 206.745 294.081 200.356C285.44 193.427 287.56 181.921 287.559 172.119L287.547 115.608C287.546 100.652 287.298 85.6798 306.37 83.7906C314.947 83.1754 323.884 83.7817 332.498 83.7868L406.753 83.7817C423.221 83.7813 439.721 83.1702 440.159 104.591C440.536 123.016 440.192 141.522 440.189 159.955L440.185 177.054C440.176 203.135 432.083 204.547 410.2 204.513L390.332 204.501L390.023 204.541C377.934 206.044 348.195 236.76 339.514 236.866C330.114 236.981 331.321 226.093 331.321 219.857L331.335 204.501ZM410.436 99.9802L338.746 99.9764C333.353 99.9769 307.889 99.3572 304.219 100.604C302.381 102.999 303.447 116.121 303.446 119.56L303.429 173.442C303.418 178.288 302.729 183.721 304.165 188.427C316.285 188.652 328.449 188.051 340.559 188.427C351.611 190.771 348.088 202.807 348.16 211.965C358.063 205.937 376.114 189.314 386.208 188.536C392.214 188.073 419.022 189.361 422.376 188.214C424.691 187.422 423.774 177.094 423.774 174.966L423.774 122.96C423.782 116.864 423.978 110.701 423.771 104.61C423.535 97.7075 416.532 99.937 410.436 99.9802Z"/>
	<path fill="white" transform="scale(2 2)" d="M126.72 135.046C129.669 130.733 134.345 127.098 136.377 122.286C139.32 115.316 134.692 105.575 144.968 103.815C158.597 103.743 154.607 122.189 152.221 130.158C176.629 130.053 173.488 128.796 173.478 152.948C173.472 168.328 175.421 169.267 157.88 169.263L140.875 169.244L126.266 169.281C122.835 169.285 117.221 170.067 114.352 167.661C111.358 165.15 111.629 142.417 112.407 136.757C113.317 130.151 123.141 131.412 126.72 135.046Z"/>
	<path fill="white" transform="scale(2 2)" d="M371.875 160.742C366.548 164.277 351.972 179.235 347.489 165.526C346.762 163.303 347.036 128.631 347.4 124.542C347.766 120.431 349.822 118.085 353.919 117.059C360.035 116.554 367.168 123.867 371.902 127.276C377.885 131.584 395.294 139.861 386.873 149.48C384.344 152.369 375.484 158.122 371.875 160.742ZM362.574 140.562L362.574 147.639C363.624 146.832 364.66 145.984 365.756 145.241L367.601 143.845C366.033 142.524 364.468 141.378 362.574 140.562Z"/>
	<path fill="white" transform="scale(2 2)" d="M261.751 432.736C207.385 435.051 160.282 395.186 155.461 340.532C150.354 282.642 193.909 236.401 250.376 231.499C273.901 231.07 296.465 236.388 315.298 251.153C385.45 306.152 361.628 412.724 275.484 430.821C270.961 431.771 266.337 432.195 261.751 432.736ZM253.275 248.196C207.828 248.717 171.402 287.817 171.902 332.854C172.21 360.537 182.416 377.397 200.912 395.895C200.81 362.721 206.022 347.738 242.699 347.723L259.375 347.733C274.181 347.712 289.33 345.767 300.825 357.163C307.468 363.75 311.236 372.054 311.218 381.398L311.177 395.895C329.551 377.947 339.764 359.691 340.1 332.875C340.684 286.168 300.076 245.245 253.275 248.196ZM236.419 364.3C215.81 365.097 217.511 378.356 217.51 394.996C217.51 398.914 217.322 402.932 217.529 406.84C238.431 414.711 249.994 419.151 273.875 414.221C281.486 412.358 287.482 409.624 294.698 406.84C294.706 400.366 295.456 382.1 293.81 376.635C289.372 361.9 274.133 364.289 262.147 364.29L236.419 364.3Z"/>
	<path fill="white" transform="scale(2 2)" d="M259.375 343.181C227.846 345.065 208.501 311.064 228.286 286.363C234.79 278.243 243.039 274.504 253.275 273.345C281.292 270.144 303.304 305.078 284.641 329.264C278.4 337.352 269.374 341.837 259.375 343.181ZM254.422 289.841C228.822 292.936 233.143 328.537 257.638 327.159C283.067 324.593 278.629 288.02 254.422 289.841Z"/>
</svg>
