<?xml version="1.0" encoding="utf-8" ?>
<svg xmlns="http://www.w3.org/2000/svg" xmlns:xlink="http://www.w3.org/1999/xlink" width="1024" height="1024">
	<path fill="white" transform="scale(2 2)" d="M71.1922 157.802L71.1905 115.075C71.182 96.9574 69.3393 77.96 94.6372 75.2589L95.8687 75.2463L374.12 75.2434C388.328 75.2431 403.692 75.5454 408.054 93.1711C409.486 98.9557 408.764 110.599 408.762 117.069L408.771 157.802L384.875 157.802L71.1922 157.802ZM245.773 105.588L245.773 126.753L371.026 126.753L371.026 105.588C356.525 105.387 341.991 105.587 327.486 105.587L245.773 105.588ZM110.855 105.588C110.037 106.985 110.861 123.6 110.855 126.753L130.313 126.753L130.825 126.539C131.558 123.968 131.181 109.025 131.078 105.588C124.345 105.622 117.587 105.703 110.855 105.588ZM151.999 105.588L151.999 126.753L172.522 126.753L172.522 105.588C165.701 105.592 158.811 105.812 151.999 105.588Z"/>
	<path fill="white" transform="scale(2 2)" d="M408.771 393.22C411.588 413.748 400.28 427.217 379.779 427.453C358.404 427.698 336.994 427.449 315.616 427.449L105.316 427.461C100.712 427.468 96.0331 427.632 91.4582 427.054C74.7584 424.944 71.115 412.622 71.1658 398.668L71.1922 178.749L408.771 178.749L408.771 247.157C394.224 247.138 378.668 245.923 364.829 251.113C344.842 258.61 328.204 276.024 324.555 297.42C323.097 305.973 323.089 330.863 324.319 339.64C327.396 361.609 343.653 379.469 363.584 388.246C378.726 394.208 392.951 393.237 408.771 393.22ZM225.728 218.292C218.012 220.453 216.831 226.209 214.348 232.899L191.099 293.688C189.112 299.027 182.618 311.861 184.198 317.45C185.641 322.554 190.994 325.368 196.083 324.51C204.974 321.56 206.347 312.036 209.403 304.239L232.077 245.731C234.994 238.085 243.058 224.504 232.269 219.212C230.148 218.171 228.037 218.099 225.728 218.292ZM251.053 234.541C247.843 235.017 245.75 235.896 243.792 238.6C237.59 247.164 247.021 254.304 252.504 259.856C257.416 264.83 262.356 269.774 267.157 274.854C262.172 279.596 248.852 291.648 245.189 296.685C238.836 305.419 248.89 316.281 258.34 311.859C261.886 309.705 286.421 285.222 289.939 280.715C295.41 273.705 289.853 268.446 285.174 263.549C280.478 258.635 275.585 253.94 270.829 249.091C265.832 243.996 259.184 233.387 251.053 234.541ZM156.702 234.541C150.204 236.112 144.68 243.973 140.097 248.536C133.714 254.892 126.993 261.109 120.911 267.738C110.912 278.634 125.293 287.342 132.972 295.026C137.531 299.589 147.285 311.848 153.247 313.216C159.714 314.055 165.746 311.16 166.407 304.091C167.136 296.302 147.758 280.885 142.019 274.854C146.642 270.54 164.017 254.909 166.989 249.95C171.454 242.501 164.6 234.169 156.702 234.541ZM116.977 348.71L113.527 348.71C113.526 355.642 113.411 362.593 113.527 369.523L288.452 369.523L291.69 369.523L291.69 348.71L116.977 348.71Z"/>
	<path fill="white" transform="scale(2 2)" d="M366.879 289.446C369.208 287.714 371.219 285.553 373.815 284.197C376.532 282.777 379.885 282.156 382.399 280.43C386.123 277.872 381.975 270.309 385.812 267.719C409.211 267.134 402.843 264.939 405.863 279.402C412.569 282.436 415.364 286.014 421.079 289.446C422.772 288.689 430.782 283.725 432.279 284.659C434.487 286.037 441.824 299.305 442.471 302.046C441.411 304.568 436.449 307.029 434.508 309.483L434.261 309.798C433.95 315.544 433.996 321.718 434.261 327.458C436.612 330.696 440.318 332.27 442.755 335.344C441.357 338.663 435.447 350.444 432.684 351.939C430.699 353.013 423.492 348.358 421.079 347.659C416.204 349.201 408.741 354.369 405.165 357.676C404.472 360.475 404.931 365.655 402.176 367.368C396.156 367.679 389.962 367.371 383.924 367.368C382.497 364.283 382.349 360.91 381.404 357.676C377.91 354.101 371.296 350.763 366.879 347.659C364.718 348.429 357.895 352.624 355.771 351.609C353.832 349.774 346.029 337.969 346.434 335.472C346.702 333.819 353.58 329.112 355.112 327.694L355.364 327.458C354.065 320.916 354.172 315.4 355.364 308.855C353.011 306.747 347.193 303.497 346.077 300.805C345.107 298.467 352.271 287.659 353.702 285.816C357.119 281.416 361.884 287.124 366.508 289.275L366.879 289.446ZM392.274 298.589C365.929 302.037 369.639 339.752 396.328 338.228C424.111 333.637 415.528 295.376 392.274 298.589Z"/>
</svg>
