<?xml version="1.0" encoding="utf-8" ?>
<svg xmlns="http://www.w3.org/2000/svg" xmlns:xlink="http://www.w3.org/1999/xlink" width="1024" height="1024">
	<path fill="white" transform="scale(2 2)" d="M366.051 237.766C359.302 237.855 352.723 237.846 346.028 236.903C307.794 231.523 275.509 197.06 271.454 158.954C266.17 109.309 301.946 67.0099 351.156 61.7368C373.775 60.9262 393.226 65.7264 411.424 79.575C449.906 108.86 456.825 165.396 427.589 203.673C411.389 224.883 391.552 234.369 366.051 237.766ZM356.365 92.2926C348.95 94.9755 349.165 99.9588 349.259 106.842C314.635 109.526 315.235 154.099 346.92 159.568C353.173 160.647 366.037 159.355 370.328 160.918C378.787 163.999 375.498 175.45 367.046 176.212C364.238 176.466 351.746 176.399 349.409 175.82C340.74 173.67 341.451 160.112 332.185 160.516C326.76 160.753 322.659 164.832 323.175 170.367C324.278 182.201 337.596 192.774 348.472 196.327C348.431 204.435 350.268 213.104 360.835 210.886C367.545 207.84 367.427 202.668 367.915 196.327C405.52 187.549 399.28 145.466 370.706 141.182C364.945 140.319 351.609 141.663 347.856 140.272C341.291 137.84 340.34 126.936 347.782 125.454C350.876 124.838 367.304 124.934 370.502 125.496C377.855 126.788 373.605 135.565 378.597 139.438C386.864 145.852 395.694 137.394 393.882 127.695C391.675 115.887 380.048 105.832 367.915 106.019C368.712 97.4852 365.828 91.6283 356.365 92.2926Z"/>
	<path fill="white" transform="scale(2 2)" d="M114.596 176.204C104.613 175.695 76.3307 178.72 69.7487 172.545C62.9671 166.182 66.1036 154.165 75.0201 151.982C80.0075 150.76 93.6225 151.394 99.5711 151.409L114.72 151.385C133.181 151.38 134.619 154.282 139.027 172.194C143.156 172.388 147.358 172.201 151.497 172.2L253.942 172.194C255.933 180.773 258.737 189.025 261.84 197.256L159.392 197.25C155.241 197.247 151.037 197.02 146.896 197.256C154.716 219.515 160.463 243.775 167.387 266.477C168.344 269.614 169.464 272.806 169.976 276.049L366.051 276.049C369.879 268.987 373.395 261.616 377.553 254.753C390.144 250.824 394.879 250.108 407.638 243.83C405.359 248.667 403.513 253.809 401.51 258.771L393.464 278.255C385.007 298.981 387.883 302.103 365.662 302.044L262.625 302.028L177.001 302.028C179.935 314.216 184.489 326.042 187.418 338.233C192.144 338.419 196.952 338.235 201.687 338.235L348.123 338.237C353.026 338.237 358.087 337.939 362.97 338.293C371.343 338.9 378.472 347.519 374.319 355.79C369.437 365.514 356.372 363.178 347.468 363.18L204.313 363.181C194.922 363.184 185.383 363.526 176.004 363.131C167.633 362.778 166.764 355.93 164.846 349.471L114.596 176.204Z"/>
	<path fill="white" transform="scale(2 2)" d="M273.709 257.525L273.709 214.367C290.779 235.445 306.086 247.126 333.523 253.58C336.347 254.245 342.25 254.367 342.154 257.525C334.553 257.24 326.839 257.521 319.228 257.523L273.709 257.525Z"/>
	<path fill="white" transform="scale(2 2)" d="M216.312 439.331C175.4 440.598 174.76 388.446 209.914 384.345C242.283 379.477 255.671 431.964 216.312 439.331Z"/>
	<path fill="white" transform="scale(2 2)" d="M329.874 439.331C294.1 443.892 285.718 389.821 323.141 384.345C358.291 379.333 366.662 434.756 329.874 439.331Z"/>
</svg>
