<?xml version="1.0" encoding="utf-8" ?>
<svg xmlns="http://www.w3.org/2000/svg" xmlns:xlink="http://www.w3.org/1999/xlink" width="1024" height="1024">
	<path fill="white" transform="scale(2 2)" d="M150.235 211.216L150.229 103.22C150.21 95.3095 147.591 83.8686 156.356 80.7535C163.074 80.3858 169.978 80.7499 176.719 80.7524L284.561 80.7457C296.836 80.7434 309.129 80.5922 321.4 80.7996C325.451 80.8681 369.503 125.953 374.254 130.719C380.978 137.463 378.422 141.822 378.423 151.513L378.409 187.996C390.241 181.936 403.503 183.052 413.185 192.851C420.768 200.525 421.084 208.842 421.088 218.984L421.076 232.772C433.804 232.705 439.026 229.761 439.099 243.721L439.106 380.454C439.105 397.425 439.131 415.2 417.921 420.766C411.111 422.553 401.053 421.768 393.876 421.769L360.375 421.76L159.444 421.923C147.83 422.005 150.234 409.492 150.23 401.33L150.235 325.431L111.753 325.421C105.176 325.42 96.1878 326.125 89.9205 324.789C68.9668 320.321 73.1069 299.758 73.1047 283.714L73.0646 232.8C72.9981 208.992 90.7521 211.208 108.261 211.225L150.235 211.216ZM165.293 95.6655L165.293 211.216L226.095 211.204C230.874 211.205 234.354 210.392 237.953 213.961C246.006 221.948 252.611 231.362 260.538 239.453C266.222 245.255 272.276 250.652 278.165 256.239C284.873 262.602 293.011 267.734 283.53 276.735C273.619 286.145 236.811 323.709 232.954 325.044C230.22 325.99 213.681 325.434 209.583 325.433L165.293 325.431L165.293 406.988L244.875 406.988L350.351 406.988C344.712 397.692 346.819 383.65 346.817 373.18L346.822 252.423C346.828 235.394 344.503 232.569 363.287 232.772L363.287 146.181L332.033 146.193C326.536 146.196 314.14 148.741 313.139 140.678C312.546 135.896 312.989 130.638 312.99 125.8L313.005 95.6655L214.675 95.665C198.224 95.6645 181.741 95.4332 165.293 95.6655ZM327.615 106.599L327.615 131.179L352.419 131.179L352.569 130.803C348.064 125.584 333.396 110.718 327.615 106.599ZM391.042 199.074C374.759 201.601 378.428 220.91 378.409 232.772L394.602 232.772L406.459 232.772L406.472 221.277C406.47 210.886 405.049 197.548 391.042 199.074ZM93.9879 226.021C84.8335 226.869 87.8036 236.131 87.8021 243.955L87.8068 292.211C87.8198 311.782 86.0573 310.416 106.996 310.427L224.247 310.44L224.247 275.258L190.625 275.258L166.941 275.274C160.486 275.292 148.702 277.448 149.098 267.381C149.416 259.283 157.894 260.397 163.596 260.386L224.247 260.376L224.247 226.021C210.948 226.357 197.549 226.022 184.24 226.021L93.9879 226.021ZM238.888 240.116L238.888 299.599C244.203 294.556 249.227 289.177 254.339 283.929C259.4 278.86 264.622 273.936 269.814 269.002C266.304 265.477 242.505 242.32 238.888 240.116ZM361.889 247.549C361.733 258.604 361.892 269.68 361.892 280.737L361.887 379.467C361.882 386.602 359.849 396.812 365.31 402.46C371.689 409.058 387.816 406.943 396.767 406.974C406.02 407.007 413.126 408.355 421.076 402.889C426.261 393.824 424.586 388.63 424.587 378.25L424.577 247.549L361.889 247.549Z"/>
	<path fill="white" transform="scale(2 2)" d="M249.595 147.709C247.168 147.91 244.635 147.733 242.194 147.723L212.6 147.689C207.486 147.694 200.36 148.978 198.226 142.738C196.562 137.873 199.607 133.952 204.215 132.671L231.816 132.657C237.178 132.658 242.688 132.388 248.029 132.744C258.048 133.413 258.114 144.737 249.595 147.709Z"/>
	<path fill="white" transform="scale(2 2)" d="M279.604 177.312C275.468 177.589 271.202 177.323 267.049 177.32L217.828 177.306C212.235 177.307 199.701 179.284 197.784 171.965C196.546 167.237 199.852 163.448 204.215 162.246L250.001 162.252C255.403 162.253 277.065 161.595 280.544 162.811C287.749 165.331 286.694 174.339 279.604 177.312Z"/>
	<path fill="white" transform="scale(2 2)" d="M120.278 280.588C102.604 283.459 97.2116 257.928 115.785 253.538C133.519 251.887 138.234 275.713 120.278 280.588Z"/>
	<path fill="white" transform="scale(2 2)" d="M232.026 375.511C228.516 375.633 225.297 374.08 223.896 370.664C220.347 362.013 237.992 354.516 244.864 350.189L269.122 335.002C272.502 332.925 275.916 330.247 279.604 328.785C285.27 328.549 290.709 334.284 287.587 339.894C285.214 344.157 272.086 350.692 267.615 353.581L244.385 368.404C240.518 370.847 236.521 374.347 232.026 375.511Z"/>
</svg>
