<svg width="308" height="76" viewBox="0 0 308 76" fill="none" xmlns="http://www.w3.org/2000/svg">
<path d="M54.8811 1.40332C25.1333 1.40332 1.00391 16.8541 1.00391 35.8667C1.00391 54.8792 25.1333 71.835 54.8811 71.835C84.629 71.835 108.758 54.9294 108.758 35.8667C108.758 16.804 84.629 1.40332 54.8811 1.40332Z" fill="#00BCFF"/>
<path d="M37.3226 25.2307C37.2724 25.2809 36.7708 25.8327 37.1219 26.2842C37.9748 27.3376 40.5332 27.9396 43.1418 27.3878C44.6969 27.0366 46.6533 25.4815 48.6097 23.9264C50.7167 22.271 52.7734 20.6155 54.8302 19.9634C57.0375 19.2611 58.4421 19.5621 59.3952 19.863C60.3985 20.164 61.6025 20.8663 63.5589 22.271C67.1708 24.9799 81.6685 37.6716 84.2269 39.8287C86.2335 38.9258 95.8652 35.0129 108.055 32.3541C107.002 25.8327 103.089 19.6624 97.0692 14.7964C88.6916 18.3079 77.8058 20.4149 67.7728 15.5488C67.7226 15.5488 62.3048 12.9904 56.9873 13.0908C49.0612 13.2914 45.5998 16.7026 41.988 20.3647L37.3226 25.2307Z" fill="white"/>
<path d="M83.5772 41.185C83.4267 41.0345 66.5211 26.2359 62.6584 23.3764C60.4511 21.721 59.197 21.2695 57.8927 21.119C57.2405 21.0187 56.2874 21.1692 55.6353 21.3197C53.8293 21.8213 51.5217 23.3765 49.465 24.9817C47.3079 26.6873 45.3013 28.2926 43.4452 28.6939C41.0372 29.2458 38.1277 28.5936 36.7732 27.6906C36.2214 27.3395 35.8702 26.888 35.6696 26.4867C35.1679 25.3329 36.0709 24.4299 36.2214 24.2794L40.8867 19.2128C41.4386 18.6609 41.9904 18.1091 42.5422 17.6075C41.0372 17.8081 39.6326 18.2094 38.2782 18.5606C36.5725 19.0121 34.9673 19.4636 33.3118 19.4636C32.6095 19.4636 28.9475 18.8616 28.2452 18.6609C24.0313 17.5071 19.2154 16.4035 13.6973 13.7949C7.07551 18.7111 2.76132 24.7811 1.45703 31.6035C2.41017 31.8543 4.91842 32.4061 5.57056 32.5566C20.5699 35.9177 25.2353 39.3289 26.0881 40.0312C26.991 39.0279 28.3455 38.3758 29.8003 38.3758C31.4557 38.3758 32.9607 39.2286 33.8636 40.4827C34.7164 39.7804 35.9204 39.2286 37.4254 39.2286C38.1277 39.2286 38.83 39.3791 39.5824 39.5797C41.2881 40.1817 42.1409 41.2854 42.5924 42.2887C43.1442 42.0378 43.8465 41.8372 44.6993 41.8372C45.5019 41.8372 46.3547 42.0378 47.2075 42.389C49.9666 43.5929 50.4181 46.3019 50.1673 48.3586C50.3679 48.3586 50.5686 48.3085 50.7692 48.3085C54.03 48.3085 56.7389 50.9672 56.7389 54.2781C56.7389 55.2814 56.4881 56.2345 56.0366 57.0873C56.9395 57.589 59.197 58.7428 61.2036 58.492C62.8089 58.2913 63.4108 57.7395 63.6115 57.4385C63.762 57.2378 63.9125 56.987 63.762 56.7864L59.5481 52.0708C59.5481 52.0708 58.8458 51.4187 59.0966 51.1679C59.3475 50.917 59.7488 51.2682 60.0498 51.519C62.2069 53.325 64.8155 56.0339 64.8155 56.0339C64.8656 56.084 65.0161 56.385 66.0194 56.5857C66.8722 56.7362 68.327 56.6359 69.3805 55.7831C69.6313 55.5824 69.8821 55.2814 70.1329 55.0306L70.0828 55.0807C71.1864 53.6761 69.9825 52.2715 69.9825 52.2715L65.0161 46.7032C65.0161 46.7032 64.3138 46.051 64.5646 45.8002C64.7653 45.5494 65.2168 45.9005 65.5679 46.1514C67.123 47.4557 69.3303 49.6629 71.4874 51.7699C71.8887 52.0708 73.7448 53.2246 76.2531 51.6194C77.758 50.6161 78.059 49.4121 78.0089 48.5091C77.9085 47.3052 76.9554 46.4524 76.9554 46.4524L70.1831 39.6801C70.1831 39.6801 69.4808 39.0781 69.7316 38.7771C69.9323 38.5263 70.3838 38.8774 70.6848 39.1283C72.8419 40.9342 78.661 46.2517 78.661 46.2517C78.7613 46.3019 80.7679 47.7566 83.226 46.1514C84.129 45.5995 84.6808 44.7467 84.731 43.7435C84.7811 42.1883 83.5772 41.185 83.5772 41.185Z" fill="white"/>
<path d="M50.8191 49.7592C49.7657 49.7592 48.6119 50.3612 48.4614 50.2609C48.3611 50.2107 48.5116 49.8094 48.6119 49.5585C48.7122 49.3077 50.0667 45.1942 46.7558 43.7394C44.1974 42.6358 42.5921 43.8899 42.0904 44.4417C41.9399 44.5922 41.8898 44.5922 41.8898 44.3915C41.8396 43.6391 41.4885 41.6325 39.2812 40.9302C36.1208 39.977 34.064 42.1843 33.5624 42.9869C33.3115 41.181 31.8066 39.7764 29.9505 39.7764C27.8937 39.7764 26.2884 41.4318 26.2383 43.4384C26.2383 45.4952 27.8937 47.1004 29.9003 47.1004C30.9036 47.1004 31.8066 46.6991 32.4587 46.0971C32.4587 46.0971 32.5089 46.1473 32.4587 46.1975C32.3082 47.1005 32.0073 50.4113 35.4686 51.7658C36.8733 52.3176 38.0271 51.9163 39.0304 51.214C39.3314 51.0133 39.3815 51.1136 39.3314 51.3645C39.1809 52.2173 39.3815 54.0232 41.9399 55.0767C43.8964 55.8793 45.0502 55.0767 45.8026 54.3744C46.1538 54.0734 46.204 54.1236 46.2541 54.575C46.3545 57.0331 48.4112 58.9896 50.8693 58.9896C53.4277 58.9896 55.4845 56.9328 55.4845 54.3744C55.4343 51.8661 53.3776 49.8094 50.8191 49.7592Z" fill="white"/>
<path d="M54.8805 0C24.5809 0 0 16.103 0 35.9182C0 36.4198 0 37.8244 0 38.0251C0 58.9941 21.4706 76 54.8805 76C88.2904 76 109.761 58.9941 109.761 38.0251V35.9182C109.761 16.103 85.1802 0 54.8805 0ZM107.253 31.905C95.3136 34.5637 86.4343 38.4264 84.1769 39.3795C78.9598 34.8145 66.9201 24.3802 63.6594 21.9221C61.8033 20.5175 60.5492 19.765 59.3954 19.464C58.8937 19.3135 58.1914 19.163 57.2885 19.163C56.4357 19.163 55.5828 19.3135 54.6297 19.6145C52.5228 20.2667 50.4159 21.9723 48.4093 23.5776V23.6277C46.503 25.1327 44.5465 26.6878 43.0918 27.0389C42.4396 27.1894 41.7875 27.2396 41.1353 27.2396C39.4799 27.2396 37.9749 26.7379 37.4231 26.0356C37.3228 25.9353 37.3729 25.7347 37.6238 25.4337L37.6739 25.3835L42.239 20.4673C45.8508 16.8555 49.2119 13.4944 57.0376 13.2937C57.1881 13.2937 57.2885 13.2937 57.439 13.2937C62.305 13.2937 67.171 15.4508 67.6726 15.7017C72.2376 17.9089 76.903 19.0627 81.6687 19.0627C86.5848 19.0627 91.6515 17.8588 96.969 15.4007C102.437 20.1162 106.149 25.7848 107.253 31.905ZM54.8805 2.10694C70.9835 2.10694 85.3809 6.72211 95.0627 13.996C90.3974 16.0026 85.9327 17.0561 81.6185 17.0561C77.204 17.0561 72.7895 16.0026 68.5254 13.8957C68.3248 13.7954 62.9571 11.237 57.3386 11.237C57.1881 11.237 57.0376 11.237 56.8871 11.237C50.3155 11.3875 46.6535 13.695 44.1452 15.7518C41.7373 15.802 39.6304 16.404 37.7743 16.9056C36.1188 17.3571 34.7142 17.7584 33.3096 17.7584C32.7578 17.7584 31.7043 17.7083 31.604 17.7083C29.9987 17.6581 21.9723 15.7016 15.5512 13.2937C25.2832 6.42112 39.2792 2.10694 54.8805 2.10694ZM13.7452 14.6984C20.4172 17.4574 28.5439 19.5644 31.1525 19.7149C31.8548 19.765 32.6073 19.8653 33.4099 19.8653C35.1155 19.8653 36.8211 19.3637 38.4766 18.9122C39.4297 18.6614 40.5333 18.3604 41.637 18.1096C41.336 18.4106 41.035 18.7115 40.734 19.0125L36.0687 24.029C35.7175 24.3802 34.9149 25.3835 35.4165 26.5875C35.6172 27.0891 36.0687 27.5406 36.6205 27.9419C37.7241 28.6944 39.7307 29.196 41.5366 29.196C42.239 29.196 42.8911 29.1459 43.4931 28.9954C45.4495 28.5439 47.5063 26.9386 49.6634 25.1828C51.369 23.8284 53.8271 22.0726 55.7333 21.571C56.2852 21.4205 56.8871 21.3201 57.439 21.3201C57.5895 21.3201 57.7399 21.3201 57.8904 21.3703C59.1446 21.5208 60.3485 21.9723 62.4555 23.5776C66.268 26.437 83.1736 41.2356 83.3241 41.3861C83.3241 41.3861 84.4277 42.3393 84.3274 43.8944C84.2773 44.7472 83.8258 45.4997 82.973 46.0515C82.2706 46.503 81.5182 46.7538 80.7657 46.7538C79.6119 46.7538 78.8594 46.202 78.8093 46.202C78.7591 46.1518 72.9399 40.8343 70.833 39.0284C70.4819 38.7274 70.1809 38.4766 69.8297 38.4766C69.6291 38.4766 69.4786 38.5769 69.3782 38.6772C69.0271 39.0785 69.4284 39.6805 69.8799 40.0317L76.6522 46.8541C76.6522 46.8541 77.505 47.6568 77.6053 48.7102C77.6555 49.8139 77.1036 50.767 76 51.5195C75.1974 52.0713 74.3947 52.3221 73.5921 52.3221C72.5386 52.3221 71.8363 51.8706 71.6858 51.7201L70.7327 50.767C68.9769 49.0112 67.1208 47.2053 65.7664 46.1016C65.4152 45.8508 65.1142 45.6 64.7631 45.6C64.6126 45.6 64.4621 45.6502 64.3116 45.8007C64.1611 45.9512 64.0607 46.2522 64.4119 46.804C64.5624 47.0046 64.7631 47.2053 64.7631 47.2053L69.6792 52.7736C69.7294 52.8238 70.6825 53.9776 69.7796 55.1313L69.5789 55.332C69.4284 55.4825 69.2779 55.633 69.1274 55.7835C68.2746 56.4858 67.171 56.536 66.7195 56.536C66.4687 56.536 66.268 56.536 66.0673 56.4858C65.5657 56.3855 65.2647 56.2852 65.1142 56.0845L65.064 56.0343C64.8132 55.7333 62.305 53.2251 60.2482 51.5195C59.9974 51.2687 59.6462 51.0178 59.2951 51.0178C59.1446 51.0178 58.9941 51.068 58.8436 51.2185C58.4423 51.67 59.0442 52.3221 59.2951 52.5729L63.5089 57.2383C63.5089 57.2885 63.4588 57.3888 63.3584 57.5393C63.2079 57.7399 62.7063 58.2416 61.1512 58.4422C60.9505 58.4422 60.8 58.4924 60.5994 58.4924C59.0442 58.4924 57.3386 57.7399 56.4858 57.2885C56.8871 56.4356 57.0878 55.5327 57.0878 54.6297C57.0878 51.1683 54.2786 48.3591 50.8172 48.3591C50.767 48.3591 50.6667 48.3591 50.6165 48.3591C50.7168 46.7538 50.5162 43.7941 47.406 42.4396C46.503 42.0383 45.6502 41.8376 44.7974 41.8376C44.1452 41.8376 43.4931 41.938 42.8911 42.1888C42.239 40.9347 41.1855 40.0317 39.831 39.5802C39.0786 39.3294 38.3261 39.1789 37.5736 39.1789C36.2693 39.1789 35.1155 39.5802 34.0621 40.2825C33.0588 39.0284 31.5538 38.2759 29.9485 38.2759C28.5439 38.2759 27.1894 38.8277 26.1861 39.831C24.8819 38.8277 19.6647 35.5168 5.76898 32.3564C5.11683 32.2059 3.61188 31.7545 2.65875 31.5036C3.86271 25.1327 7.82575 19.4139 13.7452 14.6984ZM39.53 50.9677L39.3795 50.8172H39.229C39.1287 50.8172 38.9782 50.8673 38.8277 50.9677C38.1254 51.4693 37.4231 51.7201 36.771 51.7201C36.3696 51.7201 36.0185 51.6198 35.6172 51.5195C32.4066 50.2654 32.6574 47.2053 32.8079 46.3023C32.8079 46.1017 32.8079 45.9512 32.6574 45.8508L32.4066 45.6502L32.2059 45.8508C31.5538 46.4528 30.7512 46.804 29.8984 46.804C28.0422 46.804 26.5373 45.299 26.5373 43.4429C26.5373 41.5868 28.0422 40.0818 29.8984 40.0818C31.5538 40.0818 33.0086 41.336 33.2092 42.9914L33.3096 43.8944L33.8112 43.1419C33.8614 43.0416 35.2158 40.9848 37.7241 40.9848C38.1756 40.9848 38.6772 41.0852 39.1789 41.2356C41.1855 41.8376 41.4865 43.6436 41.5366 44.396C41.5868 44.8475 41.8878 44.8475 41.938 44.8475C42.0885 44.8475 42.239 44.7472 42.3393 44.6469C42.6904 44.2455 43.5432 43.5934 44.7974 43.5934C45.3994 43.5934 46.0013 43.7439 46.6535 43.9947C49.8139 45.3492 48.3591 49.3624 48.3591 49.4125C48.1083 50.0647 48.0581 50.3657 48.3089 50.5162L48.4093 50.5663H48.5096C48.6601 50.5663 48.8106 50.5162 49.1116 50.4158C49.563 50.2653 50.165 50.0647 50.8172 50.0647C53.1749 50.1149 55.1314 52.0211 55.1314 54.3789C55.1314 56.7366 53.1749 58.6931 50.8172 58.6931C48.5096 58.6931 46.6033 56.8871 46.503 54.5795C46.503 54.3789 46.4528 53.8772 46.0515 53.8772C45.8508 53.8772 45.7003 53.9776 45.5498 54.128C45.0482 54.5795 44.396 55.0812 43.4429 55.0812C42.9914 55.0812 42.5399 54.9809 42.0383 54.7802C39.5802 53.7769 39.53 52.1215 39.6304 51.4191C39.6304 51.2686 39.6805 51.1182 39.53 50.9677ZM54.8805 69.6291C25.7347 69.6291 2.10693 54.5294 2.10693 35.868C2.10693 35.1155 2.1571 34.363 2.25743 33.6106C2.50825 33.6607 4.81584 34.2125 5.26733 34.3129C19.464 37.4733 24.1795 40.734 24.9822 41.3861C24.7314 42.0383 24.5809 42.7406 24.5809 43.4429C24.5809 46.4026 26.9888 48.7604 29.8984 48.7604C30.2495 48.7604 30.5505 48.7102 30.9017 48.6601C31.3531 50.8172 32.7578 52.4726 34.9149 53.3254C35.567 53.5762 36.169 53.6766 36.8211 53.6766C37.2225 53.6766 37.6238 53.6264 38.0251 53.5261C38.4264 54.5294 39.3294 55.7835 41.336 56.6363C42.0383 56.9373 42.7406 57.0878 43.4429 57.0878C43.9947 57.0878 44.5465 56.9875 45.0482 56.7868C46.0013 59.1446 48.3089 60.6997 50.8673 60.6997C52.5729 60.6997 54.1782 59.9974 55.3822 58.7934C56.3855 59.3452 58.5426 60.3987 60.6997 60.3987C61.0007 60.3987 61.2515 60.3987 61.5023 60.3485C63.6594 60.0977 64.6627 59.2449 65.1142 58.5927C65.2145 58.4924 65.2647 58.3419 65.3149 58.2416C65.8165 58.3921 66.3683 58.4924 67.0205 58.4924C68.1743 58.4924 69.3281 58.0911 70.4819 57.2885C71.5855 56.4858 72.3881 55.332 72.4885 54.3287V54.2786C72.8898 54.3789 73.2409 54.3789 73.6423 54.3789C74.8462 54.3789 76.0502 54.0277 77.1538 53.2753C79.3611 51.8205 79.7122 49.9644 79.7122 48.7604C80.1135 48.8607 80.4647 48.8607 80.866 48.8607C82.0198 48.8607 83.1235 48.5096 84.1769 47.8574C85.5314 47.0046 86.334 45.6502 86.4845 44.095C86.5848 43.0416 86.2838 41.9881 85.732 41.0851C89.3941 39.53 97.7716 36.47 107.604 34.2125C107.654 34.7644 107.654 35.3162 107.654 35.9182C107.654 54.5294 84.0264 69.6291 54.8805 69.6291Z" fill="#0A0080"/>
<path d="M305.395 9.33089C303.702 7.21556 301.164 6.15789 297.737 6.15789C294.31 6.15789 291.772 7.21556 290.08 9.33089C288.387 11.4462 287.541 13.9423 287.541 16.7769C287.541 19.6537 288.387 22.1921 290.08 24.2652C291.772 26.3382 294.31 27.3958 297.737 27.3958C301.164 27.3958 303.702 26.3382 305.395 24.2652C307.087 22.1921 307.933 19.696 307.933 16.7769C307.933 13.8577 307.087 11.4462 305.395 9.33089ZM301.249 21.4306C300.445 22.5306 299.26 23.0383 297.737 23.0383C296.214 23.0383 295.03 22.4883 294.226 21.4306C293.422 20.3306 292.999 18.8076 292.999 16.8192C292.999 14.8308 293.422 13.3077 294.226 12.2078C295.03 11.1501 296.214 10.6001 297.737 10.6001C299.26 10.6001 300.445 11.1501 301.249 12.2078C302.052 13.2654 302.476 14.8308 302.476 16.8192C302.476 18.8076 302.052 20.3306 301.249 21.4306ZM262.453 7.55402C260.761 6.70788 258.815 6.24251 256.615 6.24251C253.231 6.24251 250.861 7.13094 249.465 8.86551C248.577 10.0078 248.111 11.4462 247.985 13.1808H253.019C253.146 12.4193 253.4 11.7847 253.781 11.3616C254.288 10.7693 255.177 10.4309 256.446 10.4309C257.546 10.4309 258.392 10.6001 258.984 10.8962C259.577 11.1924 259.83 11.7847 259.83 12.5885C259.83 13.2654 259.45 13.7731 258.688 14.0692C258.265 14.2385 257.588 14.4077 256.615 14.5346L254.838 14.7462C252.807 15 251.284 15.4231 250.227 16.0154C248.323 17.1153 247.35 18.8922 247.35 21.346C247.35 23.2498 247.942 24.6882 249.127 25.7459C250.311 26.7612 251.834 27.2266 253.654 27.3112C265.076 27.8189 264.95 21.3037 265.034 19.9499V12.4616C264.992 10.0924 264.146 8.44246 262.453 7.55402ZM259.788 18.9345C259.746 20.6691 259.238 21.896 258.307 22.5306C257.334 23.2075 256.277 23.5036 255.134 23.5036C254.415 23.5036 253.781 23.2921 253.315 22.9113C252.807 22.5306 252.554 21.8537 252.554 20.9652C252.554 19.9499 252.977 19.2307 253.781 18.7653C254.288 18.4691 255.05 18.2576 256.192 18.0461L257.377 17.8345C257.969 17.7076 258.434 17.5807 258.773 17.4538C259.111 17.3269 259.45 17.1576 259.788 16.9461V18.9345ZM236.435 10.727C237.746 10.727 238.677 11.1501 239.312 11.9539C239.735 12.5462 239.989 13.2231 240.115 13.9846H245.742C245.446 11.1501 244.431 9.16166 242.781 8.06169C241.089 6.96172 238.931 6.36942 236.308 6.36942C233.219 6.36942 230.766 7.30018 229.031 9.20397C227.254 11.1078 226.408 13.7731 226.408 17.1999C226.408 20.2037 227.212 22.6998 228.82 24.6036C230.427 26.5074 232.881 27.4382 236.266 27.4382C239.65 27.4382 242.188 26.2959 243.923 24.0113C245.023 22.6152 245.615 21.0921 245.742 19.5268H240.073C239.946 20.5845 239.65 21.4306 239.1 22.1075C238.55 22.7421 237.662 23.0806 236.35 23.0806C234.531 23.0806 233.304 22.2344 232.627 20.5845C232.246 19.696 232.077 18.5114 232.077 17.073C232.077 15.6346 232.246 14.3231 232.627 13.3923C233.304 11.6155 234.573 10.727 236.435 10.727ZM224.843 6.32711C213.293 6.32711 213.97 16.5653 213.97 16.5653V26.9728H219.216V17.2422C219.216 15.6346 219.427 14.45 219.808 13.6885C220.527 12.3347 221.924 11.6578 224.039 11.6578C224.208 11.6578 224.42 11.6578 224.674 11.7001C224.927 11.7001 225.224 11.7424 225.562 11.7847V6.45404C225.35 6.45404 225.181 6.41173 225.097 6.41173C225.012 6.32712 224.927 6.32711 224.843 6.32711ZM209.782 10.2193C208.893 8.86552 207.709 7.89246 206.355 7.25786C204.959 6.62326 203.393 6.32711 201.659 6.32711C198.74 6.32711 196.37 7.25786 194.551 9.07705C192.732 10.9385 191.801 13.5616 191.801 17.0307C191.801 20.7114 192.817 23.3767 194.847 25.0267C196.878 26.6766 199.205 27.4805 201.87 27.4805C205.086 27.4805 207.582 26.5074 209.359 24.5613C210.332 23.5459 210.924 22.5306 211.178 21.5575H205.593C205.382 21.8537 205.128 22.1498 204.874 22.3614C204.112 22.9536 203.139 23.1652 201.955 23.1652C200.855 23.1652 199.966 22.996 199.163 22.4883C197.851 21.6844 197.132 20.3306 197.047 18.3422H211.558C211.558 16.6076 211.516 15.2961 211.389 14.3654C211.135 12.7577 210.585 11.4039 209.782 10.2193ZM197.132 14.8308C197.301 13.5193 197.766 12.5039 198.528 11.7424C199.247 10.9809 200.305 10.6001 201.659 10.6001C202.886 10.6001 203.901 10.9385 204.747 11.6578C205.593 12.377 206.016 13.4346 206.143 14.7884H197.132V14.8308ZM181.351 6.24251C178.898 6.24251 176.825 7.30018 175.386 9.03475C174.032 7.34249 171.959 6.24251 169.421 6.24251C164.302 6.24251 161.002 10.0078 161.002 15V26.9305H165.783V14.8731C165.783 12.6731 167.263 11.1501 169.421 11.1501C172.594 11.1501 172.89 13.7731 172.89 14.8731V26.9305H177.671V14.8731C177.671 12.6731 179.194 11.1501 181.309 11.1501C184.482 11.1501 184.821 13.7731 184.821 14.8731V26.9305H189.601V15C189.686 9.88088 186.598 6.24251 181.351 6.24251ZM280.73 3.7041V9.33089C280.138 8.40014 279.376 7.63863 278.445 7.13095C277.515 6.62327 276.457 6.32711 275.23 6.32711C272.607 6.32711 270.534 7.30018 268.969 9.24628C267.403 11.1924 266.599 14.0269 266.599 17.4115C266.599 20.3729 267.403 22.7844 268.969 24.6459C270.576 26.5074 273.665 27.3535 276.457 27.3535C286.103 27.3535 286.018 19.0614 286.018 19.0614V0.023417C286.018 0.023417 280.73 -0.526556 280.73 3.7041ZM279.715 21.4729C278.953 22.5729 277.811 23.1229 276.372 23.1229C274.934 23.1229 273.792 22.5729 273.072 21.4729C272.353 20.3729 271.972 18.7653 271.972 16.9038C271.972 15.2115 272.311 13.7731 273.03 12.6308C273.749 11.4885 274.849 10.8962 276.372 10.8962C277.388 10.8962 278.234 11.1924 278.995 11.827C280.222 12.8846 280.857 14.7462 280.857 17.1999C280.899 18.9345 280.476 20.3729 279.715 21.4729ZM172.086 34.9687C167.771 34.7572 165.571 35.8149 164.175 36.8725C162.229 38.3533 161.002 40.5955 161.002 44.1493V62.3835H163.54C164.217 62.3835 164.894 62.1296 165.402 61.7066C165.952 61.1989 166.248 60.5643 166.248 59.8028V52.9491C166.883 54.0068 167.686 54.8106 168.702 55.3183C169.675 55.7836 170.817 55.9952 172.086 55.9952C174.498 55.9952 176.486 55.0221 178.009 53.1183C179.532 51.1299 180.336 48.5492 180.336 45.3762C180.336 42.1609 179.617 39.9186 177.84 37.761C176.486 36.0264 174.329 35.0534 172.086 34.9687ZM173.905 49.903C173.144 50.9607 172.086 51.5107 170.732 51.5107C169.294 51.5107 168.194 51.003 167.433 49.903C166.671 48.9299 166.29 47.4915 166.29 45.5877C166.29 43.5147 166.629 41.9916 167.348 41.0186C168.109 39.9609 169.209 39.4109 170.606 39.4109C172.002 39.4109 173.144 39.9609 173.905 41.0186C174.667 42.0763 175.048 43.5993 175.048 45.5877C175.048 47.4069 174.667 48.8453 173.905 49.903ZM217.143 36.8302C215.366 35.4764 213.547 34.7572 210.416 34.8418C207.243 34.9264 204.916 35.8149 203.478 37.761C202.039 39.7071 201.32 42.2455 201.32 45.3762C201.32 48.0415 201.87 50.2415 202.928 51.8914C204.028 53.5414 205.297 54.6837 206.82 55.276C208.343 55.8683 209.866 55.9952 211.389 55.6567C212.912 55.3183 214.139 54.4298 215.07 52.9914V54.2606C214.985 55.8683 214.562 57.0952 213.885 57.899C213.208 58.7028 212.447 59.2105 211.601 59.3797C210.755 59.5489 209.951 59.4643 209.105 59.0836C208.259 58.7028 207.666 58.1528 207.243 57.4336H201.701C203.139 61.7489 205.72 63.6527 210.332 63.9488C217.778 64.4988 220.189 58.1528 220.189 54.7683V44.0647C220.274 40.5955 219.089 38.311 217.143 36.8302ZM214.943 47.3646C214.731 48.5492 214.435 49.4376 213.97 49.9876C212.997 51.2991 211.516 51.7645 209.528 51.3837C207.497 51.003 206.482 49.0569 206.482 45.5877C206.482 43.9801 206.778 42.5416 207.37 41.2724C207.962 40.0032 209.147 39.3686 210.839 39.3686C212.108 39.3686 213.081 39.834 213.716 40.7225C214.393 41.6532 214.774 42.6686 214.985 43.8531C215.155 44.9954 215.155 46.18 214.943 47.3646ZM196.836 36.3226C195.143 35.4764 193.197 35.0111 190.997 35.0111C187.613 35.0111 185.244 35.8995 183.848 37.6341C182.959 38.7763 182.494 40.2148 182.367 41.9493H187.401C187.528 41.1878 187.782 40.5532 188.163 40.1302C188.671 39.5379 189.559 39.1994 190.828 39.1994C191.928 39.1994 192.774 39.3686 193.367 39.6648C193.959 39.9609 194.213 40.5532 194.213 41.3571C194.213 42.034 193.832 42.5416 193.07 42.8378C192.647 43.007 191.97 43.1762 190.997 43.3032L189.221 43.5147C187.19 43.7685 185.624 44.1916 184.609 44.7839C182.705 45.8839 181.732 47.6607 181.732 50.1145C181.732 52.0183 182.325 53.4568 183.509 54.5144C184.694 55.5298 186.217 55.9952 188.036 56.0798C199.416 56.5875 199.29 50.0722 199.416 48.7184V41.2301C199.416 38.8187 198.57 37.1687 196.836 36.3226ZM194.17 47.7031C194.128 49.4376 193.62 50.6645 192.69 51.2991C191.717 51.976 190.659 52.2722 189.517 52.2722C188.797 52.2722 188.205 52.0606 187.697 51.6799C187.19 51.2991 186.936 50.6222 186.936 49.7338C186.936 48.7184 187.359 47.9992 188.163 47.5338C188.671 47.2377 189.432 47.0261 190.574 46.8146L191.759 46.6031C192.351 46.4762 192.817 46.3916 193.155 46.2223C193.493 46.0954 193.832 45.9262 194.17 45.7146V47.7031ZM240.073 37.9725C238.381 35.8572 235.842 34.7995 232.416 34.7995C228.989 34.7995 226.45 35.8572 224.758 37.9725C223.066 40.0879 222.22 42.584 222.22 45.4185C222.22 48.253 223.066 50.8338 224.758 52.9068C226.45 54.9798 228.989 55.9952 232.416 55.9952C235.842 55.9952 238.381 54.9375 240.073 52.9068C241.765 50.8338 242.612 48.3377 242.612 45.4185C242.612 42.4993 241.765 40.0879 240.073 37.9725ZM235.927 50.0299C235.123 51.1299 233.939 51.6376 232.416 51.6376C230.893 51.6376 229.708 51.0876 228.904 50.0299C228.058 48.93 227.677 47.4069 227.677 45.4185C227.677 43.4301 228.1 41.907 228.904 40.8071C229.708 39.7494 230.893 39.1994 232.416 39.1994C233.939 39.1994 235.123 39.7494 235.927 40.8071C236.731 41.8647 237.154 43.4301 237.154 45.4185C237.154 47.4492 236.731 48.9723 235.927 50.0299Z" fill="white"/>
<rect x="132" y="5" width="3" height="66" fill="#D9D9D9"/>
</svg>
