<svg width="17" height="11" viewBox="0 0 17 11" fill="none" xmlns="http://www.w3.org/2000/svg">
<path d="M9.16992 9.16992C8.66834 9.67151 7.8551 9.67151 7.35352 9.16992L0.908202 2.72461C0.406615 2.22302 0.406615 1.40979 0.908202 0.908204C1.40979 0.406617 2.22302 0.406616 2.72461 0.908203L9.16992 7.35351C9.67151 7.8551 9.67151 8.66833 9.16992 9.16992Z" fill="white"/>
<path d="M7.44336 9.16992C6.94177 8.66834 6.94177 7.8551 7.44336 7.35352L13.8887 0.908203C14.3903 0.406617 15.2035 0.406617 15.7051 0.908204C16.2067 1.40979 16.2067 2.22302 15.7051 2.72461L9.25977 9.16992C8.75818 9.67151 7.94495 9.67151 7.44336 9.16992Z" fill="white"/>
</svg>
