<svg width="180" height="39" viewBox="0 0 180 39" fill="none" xmlns="http://www.w3.org/2000/svg">
<path d="M26.635 14H23.695L19.78 8.09V14H16.84V3.425H19.78L23.695 9.41V3.425H26.635V14ZM34.0997 5.78V7.505H37.4747V9.74H34.0997V11.645H37.9247V14H31.1597V3.425H37.9247V5.78H34.0997ZM48.8425 14L46.7875 11.015L45.0325 14H41.6875L45.1225 8.585L41.5675 3.425H45.0325L47.0275 6.335L48.7375 3.425H52.0825L48.6925 8.75L52.3075 14H48.8425ZM64.1314 3.425V5.765H61.3114V14H58.3714V5.765H55.5814V3.425H64.1314ZM21.025 20.425C22.135 20.425 23.105 20.65 23.935 21.1C24.775 21.54 25.42 22.16 25.87 22.96C26.32 23.76 26.545 24.675 26.545 25.705C26.545 26.725 26.315 27.635 25.855 28.435C25.405 29.235 24.76 29.865 23.92 30.325C23.09 30.775 22.125 31 21.025 31H16.84V20.425H21.025ZM20.8 28.405C21.66 28.405 22.335 28.17 22.825 27.7C23.315 27.23 23.56 26.565 23.56 25.705C23.56 24.835 23.315 24.165 22.825 23.695C22.335 23.215 21.66 22.975 20.8 22.975H19.78V28.405H20.8ZM33.6603 22.78V24.505H37.0353V26.74H33.6603V28.645H37.4853V31H30.7203V20.425H37.4853V22.78H33.6603ZM52.078 20.425L48.433 31H44.668L41.008 20.425H44.158L46.558 28.06L48.943 20.425H52.078Z" fill="white"/>
<rect width="6" height="34" rx="3" fill="white"/>
</svg>
