<svg width="349" height="39" viewBox="0 0 349 39" fill="none" xmlns="http://www.w3.org/2000/svg">
<path d="M112.256 14H109.316L105.401 8.09V14H102.461V3.425H105.401L109.316 9.41V3.425H112.256V14ZM119.721 5.78V7.505H123.096V9.74H119.721V11.645H123.546V14H116.781V3.425H123.546V5.78H119.721ZM134.463 14L132.408 11.015L130.653 14H127.308L130.743 8.585L127.188 3.425H130.653L132.648 6.335L134.358 3.425H137.703L134.313 8.75L137.928 14H134.463ZM149.752 3.425V5.765H146.932V14H143.992V5.765H141.202V3.425H149.752ZM118.871 20.425C119.981 20.425 120.951 20.65 121.781 21.1C122.621 21.54 123.266 22.16 123.716 22.96C124.166 23.76 124.391 24.675 124.391 25.705C124.391 26.725 124.161 27.635 123.701 28.435C123.251 29.235 122.606 29.865 121.766 30.325C120.936 30.775 119.971 31 118.871 31H114.686V20.425H118.871ZM118.646 28.405C119.506 28.405 120.181 28.17 120.671 27.7C121.161 27.23 121.406 26.565 121.406 25.705C121.406 24.835 121.161 24.165 120.671 23.695C120.181 23.215 119.506 22.975 118.646 22.975H117.626V28.405H118.646ZM131.506 22.78V24.505H134.881V26.74H131.506V28.645H135.331V31H128.566V20.425H135.331V22.78H131.506ZM149.924 20.425L146.279 31H142.514L138.854 20.425H142.004L144.404 28.06L146.789 20.425H149.924Z" fill="white"/>
<path d="M188.48 20.056C188.091 20.056 187.739 19.9893 187.424 19.856C187.115 19.7227 186.869 19.5307 186.688 19.28C186.507 19.0293 186.413 18.7333 186.408 18.392H187.608C187.624 18.6213 187.704 18.8027 187.848 18.936C187.997 19.0693 188.2 19.136 188.456 19.136C188.717 19.136 188.923 19.0747 189.072 18.952C189.221 18.824 189.296 18.6587 189.296 18.456C189.296 18.2907 189.245 18.1547 189.144 18.048C189.043 17.9413 188.915 17.8587 188.76 17.8C188.611 17.736 188.403 17.6667 188.136 17.592C187.773 17.4853 187.477 17.3813 187.248 17.28C187.024 17.1733 186.829 17.016 186.664 16.808C186.504 16.5947 186.424 16.312 186.424 15.96C186.424 15.6293 186.507 15.3413 186.672 15.096C186.837 14.8507 187.069 14.664 187.368 14.536C187.667 14.4027 188.008 14.336 188.392 14.336C188.968 14.336 189.435 14.4773 189.792 14.76C190.155 15.0373 190.355 15.4267 190.392 15.928H189.16C189.149 15.736 189.067 15.5787 188.912 15.456C188.763 15.328 188.563 15.264 188.312 15.264C188.093 15.264 187.917 15.32 187.784 15.432C187.656 15.544 187.592 15.7067 187.592 15.92C187.592 16.0693 187.64 16.1947 187.736 16.296C187.837 16.392 187.96 16.472 188.104 16.536C188.253 16.5947 188.461 16.664 188.728 16.744C189.091 16.8507 189.387 16.9573 189.616 17.064C189.845 17.1707 190.043 17.3307 190.208 17.544C190.373 17.7573 190.456 18.0373 190.456 18.384C190.456 18.6827 190.379 18.96 190.224 19.216C190.069 19.472 189.843 19.6773 189.544 19.832C189.245 19.9813 188.891 20.056 188.48 20.056ZM198.667 14.416V15.32H197.179V20H196.059V15.32H194.571V14.416H198.667ZM204.028 14.416V17.872C204.028 18.2507 204.127 18.5413 204.324 18.744C204.522 18.9413 204.799 19.04 205.156 19.04C205.519 19.04 205.799 18.9413 205.996 18.744C206.194 18.5413 206.292 18.2507 206.292 17.872V14.416H207.42V17.864C207.42 18.3387 207.316 18.7413 207.108 19.072C206.906 19.3973 206.631 19.6427 206.284 19.808C205.943 19.9733 205.562 20.056 205.14 20.056C204.724 20.056 204.346 19.9733 204.004 19.808C203.668 19.6427 203.402 19.3973 203.204 19.072C203.007 18.7413 202.908 18.3387 202.908 17.864V14.416H204.028ZM213.894 14.416C214.481 14.416 214.996 14.5307 215.438 14.76C215.886 14.9893 216.23 15.3173 216.47 15.744C216.716 16.1653 216.838 16.656 216.838 17.216C216.838 17.776 216.716 18.2667 216.47 18.688C216.23 19.104 215.886 19.4267 215.438 19.656C214.996 19.8853 214.481 20 213.894 20H211.942V14.416H213.894ZM213.854 19.048C214.441 19.048 214.894 18.888 215.214 18.568C215.534 18.248 215.694 17.7973 215.694 17.216C215.694 16.6347 215.534 16.1813 215.214 15.856C214.894 15.5253 214.441 15.36 213.854 15.36H213.062V19.048H213.854ZM222.237 14.416V20H221.117V14.416H222.237ZM229.375 20.056C228.853 20.056 228.373 19.9333 227.935 19.688C227.498 19.4427 227.151 19.104 226.895 18.672C226.639 18.2347 226.511 17.7413 226.511 17.192C226.511 16.648 226.639 16.16 226.895 15.728C227.151 15.2907 227.498 14.9493 227.935 14.704C228.373 14.4587 228.853 14.336 229.375 14.336C229.903 14.336 230.383 14.4587 230.815 14.704C231.253 14.9493 231.597 15.2907 231.847 15.728C232.103 16.16 232.231 16.648 232.231 17.192C232.231 17.7413 232.103 18.2347 231.847 18.672C231.597 19.104 231.253 19.4427 230.815 19.688C230.378 19.9333 229.898 20.056 229.375 20.056ZM229.375 19.056C229.711 19.056 230.007 18.9813 230.263 18.832C230.519 18.6773 230.719 18.4587 230.863 18.176C231.007 17.8933 231.079 17.5653 231.079 17.192C231.079 16.8187 231.007 16.4933 230.863 16.216C230.719 15.9333 230.519 15.7173 230.263 15.568C230.007 15.4187 229.711 15.344 229.375 15.344C229.039 15.344 228.741 15.4187 228.479 15.568C228.223 15.7173 228.023 15.9333 227.879 16.216C227.735 16.4933 227.663 16.8187 227.663 17.192C227.663 17.5653 227.735 17.8933 227.879 18.176C228.023 18.4587 228.223 18.6773 228.479 18.832C228.741 18.9813 229.039 19.056 229.375 19.056Z" fill="white"/>
<rect x="165" width="6" height="34" rx="3" fill="white"/>
</svg>
